<svg width="18" height="14" viewBox="0 0 18 14" fill="none" xmlns="http://www.w3.org/2000/svg">
<g id="envelope">
<path id="Shape" fill-rule="evenodd" clip-rule="evenodd" d="M2.19793 0.027832H15.7798C16.9921 0.027832 17.9777 1.01709 17.974 2.22949V11.5084C17.974 12.7208 16.9884 13.7063 15.776 13.7063H2.19793C0.985537 13.7063 0 12.7208 0 11.5084V2.22577C0 1.01337 0.985537 0.027832 2.19793 0.027832ZM15.7798 12.7022C16.438 12.7022 16.9736 12.1667 16.9736 11.5084H16.9698V2.22949C16.9698 1.57122 16.4343 1.03568 15.776 1.03568H2.19793C1.53967 1.03568 1.00413 1.57122 1.00413 2.22949V11.5084C1.00413 12.1667 1.53967 12.7022 2.19793 12.7022H15.7798Z" fill="#F49D37"/>
<path id="Path" d="M11.3355 6.75178L15.7314 2.80963C15.9359 2.62368 15.9545 2.30757 15.7686 2.0993C15.5826 1.89476 15.2665 1.87616 15.0583 2.06211L8.99627 7.50302L7.81363 6.44682C7.80991 6.4431 7.80619 6.43938 7.80619 6.43567C7.78016 6.40963 7.75412 6.38732 7.72437 6.365L2.91197 2.05839C2.70371 1.87244 2.38759 1.89104 2.20164 2.0993C2.01569 2.30757 2.03429 2.62368 2.24255 2.80963L6.69049 6.78525L2.26115 10.9319C2.06032 11.1216 2.04916 11.4377 2.23883 11.6423C2.33925 11.7464 2.47313 11.8022 2.60701 11.8022C2.72974 11.8022 2.85247 11.7576 2.94916 11.6683L7.44544 7.46211L8.66528 8.55178C8.76197 8.63732 8.88098 8.67823 8.99999 8.67823C9.119 8.67823 9.24173 8.6336 9.3347 8.54806L10.588 7.42492L15.0583 11.672C15.1549 11.765 15.2814 11.8096 15.4041 11.8096C15.538 11.8096 15.6682 11.7576 15.7686 11.6534C15.9583 11.4526 15.9508 11.1328 15.75 10.9431L11.3355 6.75178Z" fill="#F49D37"/>
</g>
</svg>
