<svg width="50" height="50" viewBox="0 0 50 50" fill="none" xmlns="http://www.w3.org/2000/svg">
<path d="M25 11.5833H45.8333" stroke="#191919" stroke-width="1.5" stroke-miterlimit="10" stroke-linecap="round" stroke-linejoin="round"/>
<path d="M29.625 4.16675H41.2083C44.9167 4.16675 45.8333 5.08342 45.8333 8.75008V17.3126C45.8333 20.9792 44.9167 21.8959 41.2083 21.8959H29.625C25.9167 21.8959 25 20.9792 25 17.3126V8.75008C25 5.08342 25.9167 4.16675 29.625 4.16675Z" stroke="#191919" stroke-width="1.5" stroke-linecap="round" stroke-linejoin="round"/>
<path d="M4.16675 35.5417H25.0001" stroke="#191919" stroke-width="1.5" stroke-miterlimit="10" stroke-linecap="round" stroke-linejoin="round"/>
<path d="M8.79175 28.125H20.3751C24.0834 28.125 25.0001 29.0417 25.0001 32.7083V41.2708C25.0001 44.9375 24.0834 45.8542 20.3751 45.8542H8.79175C5.08342 45.8542 4.16675 44.9375 4.16675 41.2708V32.7083C4.16675 29.0417 5.08342 28.125 8.79175 28.125Z" stroke="#191919" stroke-width="1.5" stroke-linecap="round" stroke-linejoin="round"/>
<path d="M45.8333 31.25C45.8333 39.3125 39.3125 45.8333 31.25 45.8333L33.4375 42.1875" stroke="#191919" stroke-width="1.5" stroke-linecap="round" stroke-linejoin="round"/>
<path d="M4.16675 18.7501C4.16675 10.6876 10.6876 4.16675 18.7501 4.16675L16.5626 7.81258" stroke="#191919" stroke-width="1.5" stroke-linecap="round" stroke-linejoin="round"/>
</svg>
