<svg width="18" height="18" viewBox="0 0 18 18" fill="none" xmlns="http://www.w3.org/2000/svg">
<g id="phone-call">
<path id="Shape" fill-rule="evenodd" clip-rule="evenodd" d="M12.9364 10.557C13.4073 10.557 13.8516 10.762 14.2199 11.1456L16.3048 13.238C16.6883 13.6177 16.8896 14.0696 16.8896 14.5405C16.8896 15.0076 16.6921 15.4633 16.3162 15.8545C16.1529 16.0253 15.9858 16.1886 15.8225 16.3443C15.8048 16.3615 15.7871 16.3786 15.7695 16.3956C15.5497 16.6082 15.3408 16.8101 15.1579 17.0317C15.156 17.0355 15.1532 17.0383 15.1503 17.0412C15.1475 17.044 15.1446 17.0469 15.1427 17.0507C14.5655 17.6772 13.8288 17.9924 12.9516 17.9924C12.8756 17.9924 12.7921 17.9886 12.7124 17.9848C11.4098 17.9013 10.244 17.4114 9.37058 16.9975C7.08451 15.8924 5.08324 14.3241 3.41995 12.338C2.04906 10.6899 1.13008 9.15192 0.514886 7.49243C0.264253 6.81648 -0.0623296 5.78357 0.0288096 4.6747C0.0895691 3.98736 0.366784 3.39496 0.85286 2.90888L2.144 1.60635L2.15159 1.59876C2.53134 1.2342 2.97944 1.04053 3.44273 1.04053C3.90602 1.04053 4.34653 1.2342 4.71489 1.59876C4.96172 1.8266 5.20096 2.06964 5.42881 2.30508C5.54273 2.4266 5.66425 2.54812 5.78197 2.66584L5.78197 2.66584L6.81868 3.70255C7.61615 4.50002 7.61615 5.53293 6.81868 6.3304C6.76552 6.38357 6.71235 6.43768 6.65919 6.49179C6.60602 6.54591 6.55286 6.60002 6.4997 6.65319C6.47259 6.68066 6.44541 6.70824 6.41815 6.73591C6.16279 6.99504 5.90004 7.26167 5.61868 7.51901C5.85033 8.03167 6.16932 8.53673 6.644 9.13673C7.62375 10.3405 8.64527 11.2709 9.76932 11.9848C9.87944 12.0532 10.0086 12.1177 10.1453 12.1861C10.1775 12.2028 10.2101 12.2196 10.243 12.2365C10.3072 12.2694 10.3724 12.3029 10.4377 12.338L11.6377 11.1418C12.0212 10.7582 12.4693 10.557 12.9364 10.557ZM15.2027 15.5233C15.3337 15.396 15.4578 15.2753 15.5794 15.1443C15.9668 14.7418 15.9668 14.3431 15.5756 13.9557L13.4832 11.8633L13.4756 11.8557C13.3579 11.7266 13.1643 11.5785 12.9288 11.5785C12.6896 11.5785 12.4845 11.7342 12.3554 11.8633L11.0567 13.162C10.9921 13.2266 10.7946 13.4241 10.4794 13.4241C10.3541 13.4241 10.2326 13.3937 10.1035 13.3291C10.0959 13.3253 10.0883 13.3206 10.0807 13.3158C10.0731 13.3111 10.0655 13.3063 10.0579 13.3026C9.94781 13.2342 9.81871 13.1697 9.68202 13.1013L9.68197 13.1013C9.53008 13.0253 9.37058 12.9456 9.21489 12.8469C7.9959 12.076 6.89083 11.0696 5.84273 9.7785L5.83894 9.7747C5.26172 9.04179 4.88197 8.4266 4.61235 7.77344L4.60096 7.73926C4.53261 7.52281 4.47185 7.20382 4.79843 6.87724C4.80088 6.87233 4.80492 6.86901 4.80951 6.86523C4.81204 6.86315 4.81473 6.86094 4.81742 6.85825C5.1478 6.56205 5.45159 6.25825 5.77058 5.93167C5.84386 5.86092 5.91546 5.78848 5.98761 5.71549C6.02389 5.67878 6.06032 5.64193 6.09716 5.60508C6.4997 5.20255 6.4997 4.8304 6.09716 4.42787L5.06046 3.39116C5.00017 3.32899 4.93989 3.26776 4.88006 3.20699C4.8193 3.14527 4.75902 3.08404 4.6997 3.02281C4.46805 2.78357 4.2478 2.55951 4.01615 2.34306L4.00476 2.33167C3.88324 2.21015 3.68957 2.06584 3.45033 2.06584C3.25666 2.06584 3.05919 2.16078 2.87311 2.33546L1.57818 3.6304C1.26299 3.94559 1.0921 4.31395 1.05413 4.75825C0.997164 5.45319 1.12628 6.18989 1.47944 7.13546C2.05286 8.68483 2.91868 10.1279 4.21362 11.6886C5.78197 13.5608 7.66932 15.038 9.81868 16.0785C10.6048 16.4545 11.6529 16.895 12.7807 16.9671C12.8377 16.9709 12.8984 16.9709 12.9554 16.9709C13.5478 16.9709 13.9997 16.7772 14.3832 16.3671C14.6187 16.0899 14.8693 15.8431 15.1162 15.6076C15.1454 15.5791 15.1742 15.551 15.2027 15.5233Z" fill="#F49D37"/>
<path id="Path" d="M9.72374 4.28017C10.7187 4.44726 11.6225 4.91815 12.344 5.63967C13.0655 6.36119 13.5326 7.26498 13.7035 8.25992C13.7453 8.51055 13.9617 8.68524 14.2086 8.68524C14.2389 8.68524 14.2655 8.68144 14.2959 8.67764C14.5769 8.63207 14.763 8.36625 14.7174 8.08524C14.5123 6.88144 13.9427 5.78397 13.0731 4.91435C12.2035 4.04473 11.106 3.47511 9.90222 3.27005C9.62121 3.22448 9.35918 3.41055 9.30982 3.68777C9.26045 3.96498 9.44273 4.2346 9.72374 4.28017Z" fill="#F49D37"/>
<path id="Path_2" d="M17.9718 7.93693C17.6339 5.95465 16.6997 4.15085 15.2643 2.71541C13.8288 1.27997 12.025 0.34579 10.0427 0.00781575C9.76552 -0.0415513 9.50349 0.148322 9.45413 0.425537C9.40856 0.70655 9.59463 0.968575 9.87564 1.01794C11.6453 1.31794 13.2592 2.15718 14.5427 3.43693C15.8263 4.72047 16.6617 6.3344 16.9617 8.10402C17.0035 8.35465 17.2199 8.52934 17.4668 8.52934C17.4972 8.52934 17.5237 8.52554 17.5541 8.52174C17.8313 8.47997 18.0212 8.21414 17.9718 7.93693Z" fill="#F49D37"/>
</g>
</svg>
