<svg width="15" height="20" viewBox="0 0 15 20" fill="none" xmlns="http://www.w3.org/2000/svg">
<g id="placeholder">
<path id="Shape" fill-rule="evenodd" clip-rule="evenodd" d="M0 7.5C0 3.3645 3.3645 0 7.5 0C11.6355 0 15 3.3645 15 7.5C15 10.1651 14.1859 11.2388 10.274 16.3985C9.59946 17.2881 8.83496 18.2965 7.96158 19.4615C7.85262 19.6068 7.68165 19.6923 7.50004 19.6923C7.31842 19.6923 7.14742 19.6068 7.03846 19.4615C6.16321 18.2946 5.39783 17.2856 4.72227 16.395L4.71465 16.385C0.812115 11.2403 0 10.1697 0 7.5ZM7.49988 18.1548C8.186 17.2427 8.80058 16.432 9.35458 15.7013L9.3546 15.7013C13.1604 10.6816 13.8462 9.77711 13.8462 7.5C13.8462 4.00073 10.9993 1.15385 7.5 1.15385C4.00073 1.15385 1.15385 4.00073 1.15385 7.5C1.15385 9.78158 1.83785 10.6833 5.63392 15.6876C6.191 16.422 6.80908 17.2368 7.49988 18.1548Z" fill="#F49D37"/>
<path id="Shape_2" fill-rule="evenodd" clip-rule="evenodd" d="M3.46155 7.49989C3.46155 5.27308 5.2732 3.46143 7.50001 3.46143C9.72682 3.46143 11.5385 5.27308 11.5385 7.49989C11.5385 9.7267 9.72682 11.5383 7.50001 11.5383C5.2732 11.5383 3.46155 9.7267 3.46155 7.49989ZM4.61539 7.49989C4.61539 9.09046 5.90943 10.3845 7.50001 10.3845C9.09059 10.3845 10.3846 9.09046 10.3846 7.49989C10.3846 5.90931 9.09059 4.61527 7.50001 4.61527C5.90943 4.61527 4.61539 5.90931 4.61539 7.49989Z" fill="#F49D37"/>
</g>
</svg>
